<?xml version="1.0" encoding="UTF-8"?>
<svg xmlns="http://www.w3.org/2000/svg" xmlns:xlink="http://www.w3.org/1999/xlink" width="114.217pt" height="124.704pt" viewBox="0 0 114.217 124.704">
<defs>
<g>
<g id="glyph-0-0">
<path d="M 4.625 -3.296875 L 2.25 -5.671875 C 2.109375 -5.8125 2.078125 -5.828125 1.984375 -5.828125 C 1.859375 -5.828125 1.75 -5.71875 1.75 -5.59375 C 1.75 -5.515625 1.765625 -5.484375 1.90625 -5.359375 L 4.28125 -2.96875 L 1.90625 -0.578125 C 1.765625 -0.453125 1.75 -0.421875 1.75 -0.34375 C 1.75 -0.21875 1.859375 -0.109375 1.984375 -0.109375 C 2.078125 -0.109375 2.109375 -0.125 2.25 -0.265625 L 4.609375 -2.640625 L 7.0625 -0.171875 C 7.09375 -0.171875 7.171875 -0.109375 7.25 -0.109375 C 7.390625 -0.109375 7.484375 -0.21875 7.484375 -0.34375 C 7.484375 -0.375 7.484375 -0.421875 7.453125 -0.46875 C 7.4375 -0.5 5.546875 -2.359375 4.953125 -2.96875 L 7.125 -5.140625 C 7.1875 -5.21875 7.359375 -5.375 7.421875 -5.4375 C 7.4375 -5.46875 7.484375 -5.515625 7.484375 -5.59375 C 7.484375 -5.71875 7.390625 -5.828125 7.25 -5.828125 C 7.15625 -5.828125 7.09375 -5.78125 6.96875 -5.65625 Z M 4.625 -3.296875 "/>
</g>
</g>
</defs>
<path fill="none" stroke-width="0.3985" stroke-linecap="butt" stroke-linejoin="miter" stroke="rgb(0%, 0%, 0%)" stroke-opacity="1" stroke-miterlimit="10" d="M -49.664594 1.358765 L -49.664594 15.647458 L -35.3759 15.647458 L -35.3759 1.358765 Z M -49.664594 1.358765 " transform="matrix(0.993191, 0, 0, -0.993191, 107.396755, 19.974513)"/>
<path fill="none" stroke-width="0.3985" stroke-linecap="butt" stroke-linejoin="miter" stroke="rgb(0%, 0%, 0%)" stroke-opacity="1" stroke-miterlimit="10" d="M -32.654244 1.358765 L -32.654244 15.647458 L -18.369484 15.647458 L -18.369484 1.358765 Z M -32.654244 1.358765 " transform="matrix(0.993191, 0, 0, -0.993191, 107.396755, 19.974513)"/>
<path fill="none" stroke-width="0.3985" stroke-linecap="butt" stroke-linejoin="miter" stroke="rgb(0%, 0%, 0%)" stroke-opacity="1" stroke-miterlimit="10" d="M -15.647828 1.358765 L -15.647828 15.647458 L -1.359134 15.647458 L -1.359134 1.358765 Z M -15.647828 1.358765 " transform="matrix(0.993191, 0, 0, -0.993191, 107.396755, 19.974513)"/>
<path fill="none" stroke-width="0.3985" stroke-linecap="butt" stroke-linejoin="miter" stroke="rgb(0%, 0%, 0%)" stroke-opacity="1" stroke-miterlimit="10" d="M -49.664594 -19.049722 L -49.664594 -4.761028 L -35.3759 -4.761028 L -35.3759 -19.049722 Z M -49.664594 -19.049722 " transform="matrix(0.993191, 0, 0, -0.993191, 107.396755, 19.974513)"/>
<path fill="none" stroke-width="0.3985" stroke-linecap="butt" stroke-linejoin="miter" stroke="rgb(0%, 0%, 0%)" stroke-opacity="1" stroke-miterlimit="10" d="M -32.654244 -19.049722 L -32.654244 -4.761028 L -18.369484 -4.761028 L -18.369484 -19.049722 Z M -32.654244 -19.049722 " transform="matrix(0.993191, 0, 0, -0.993191, 107.396755, 19.974513)"/>
<path fill="none" stroke-width="0.3985" stroke-linecap="butt" stroke-linejoin="miter" stroke="rgb(0%, 0%, 0%)" stroke-opacity="1" stroke-miterlimit="10" d="M -15.647828 -19.049722 L -15.647828 -4.761028 L -1.359134 -4.761028 L -1.359134 -19.049722 Z M -15.647828 -19.049722 " transform="matrix(0.993191, 0, 0, -0.993191, 107.396755, 19.974513)"/>
<path fill="none" stroke-width="0.3985" stroke-linecap="butt" stroke-linejoin="miter" stroke="rgb(0%, 0%, 0%)" stroke-opacity="1" stroke-miterlimit="10" d="M -49.664594 -39.458208 L -49.664594 -25.173447 L -35.3759 -25.173447 L -35.3759 -39.458208 Z M -49.664594 -39.458208 " transform="matrix(0.993191, 0, 0, -0.993191, 107.396755, 19.974513)"/>
<path fill="none" stroke-width="0.3985" stroke-linecap="butt" stroke-linejoin="miter" stroke="rgb(0%, 0%, 0%)" stroke-opacity="1" stroke-miterlimit="10" d="M -32.654244 -39.458208 L -32.654244 -25.173447 L -18.369484 -25.173447 L -18.369484 -39.458208 Z M -32.654244 -39.458208 " transform="matrix(0.993191, 0, 0, -0.993191, 107.396755, 19.974513)"/>
<path fill="none" stroke-width="0.3985" stroke-linecap="butt" stroke-linejoin="miter" stroke="rgb(0%, 0%, 0%)" stroke-opacity="1" stroke-miterlimit="10" d="M -15.647828 -39.458208 L -15.647828 -25.173447 L -1.359134 -25.173447 L -1.359134 -39.458208 Z M -15.647828 -39.458208 " transform="matrix(0.993191, 0, 0, -0.993191, 107.396755, 19.974513)"/>
<path fill="none" stroke-width="0.3985" stroke-linecap="butt" stroke-linejoin="miter" stroke="rgb(0%, 0%, 0%)" stroke-opacity="1" stroke-miterlimit="10" d="M -66.67101 -59.870627 L -66.67101 -45.581934 L -52.38625 -45.581934 L -52.38625 -59.870627 Z M -66.67101 -59.870627 " transform="matrix(0.993191, 0, 0, -0.993191, 107.396755, 19.974513)"/>
<path fill="none" stroke-width="0.3985" stroke-linecap="butt" stroke-linejoin="miter" stroke="rgb(0%, 0%, 0%)" stroke-opacity="1" stroke-miterlimit="10" d="M -49.664594 -59.870627 L -49.664594 -45.581934 L -35.3759 -45.581934 L -35.3759 -59.870627 Z M -49.664594 -59.870627 " transform="matrix(0.993191, 0, 0, -0.993191, 107.396755, 19.974513)"/>
<path fill="none" stroke-width="0.3985" stroke-linecap="butt" stroke-linejoin="miter" stroke="rgb(0%, 0%, 0%)" stroke-opacity="1" stroke-miterlimit="10" d="M -32.654244 -59.870627 L -32.654244 -45.581934 L -18.369484 -45.581934 L -18.369484 -59.870627 Z M -32.654244 -59.870627 " transform="matrix(0.993191, 0, 0, -0.993191, 107.396755, 19.974513)"/>
<path fill="none" stroke-width="0.3985" stroke-linecap="butt" stroke-linejoin="miter" stroke="rgb(0%, 0%, 0%)" stroke-opacity="1" stroke-miterlimit="10" d="M -83.68136 -80.279114 L -83.68136 -65.99042 L -69.392666 -65.99042 L -69.392666 -80.279114 Z M -83.68136 -80.279114 " transform="matrix(0.993191, 0, 0, -0.993191, 107.396755, 19.974513)"/>
<path fill="none" stroke-width="0.3985" stroke-linecap="butt" stroke-linejoin="miter" stroke="rgb(0%, 0%, 0%)" stroke-opacity="1" stroke-miterlimit="10" d="M -66.67101 -80.279114 L -66.67101 -65.99042 L -52.38625 -65.99042 L -52.38625 -80.279114 Z M -66.67101 -80.279114 " transform="matrix(0.993191, 0, 0, -0.993191, 107.396755, 19.974513)"/>
<path fill="none" stroke-width="0.3985" stroke-linecap="butt" stroke-linejoin="miter" stroke="rgb(0%, 0%, 0%)" stroke-opacity="1" stroke-miterlimit="10" d="M -49.664594 -80.279114 L -49.664594 -65.99042 L -35.3759 -65.99042 L -35.3759 -80.279114 Z M -49.664594 -80.279114 " transform="matrix(0.993191, 0, 0, -0.993191, 107.396755, 19.974513)"/>
<path fill="none" stroke-width="0.3985" stroke-linecap="butt" stroke-linejoin="miter" stroke="rgb(0%, 0%, 0%)" stroke-opacity="1" stroke-miterlimit="10" d="M -83.68136 -100.6876 L -83.68136 -86.40284 L -69.392666 -86.40284 L -69.392666 -100.6876 Z M -83.68136 -100.6876 " transform="matrix(0.993191, 0, 0, -0.993191, 107.396755, 19.974513)"/>
<path fill="none" stroke-width="0.3985" stroke-linecap="butt" stroke-linejoin="miter" stroke="rgb(0%, 0%, 0%)" stroke-opacity="1" stroke-miterlimit="10" d="M -66.67101 -100.6876 L -66.67101 -86.40284 L -52.38625 -86.40284 L -52.38625 -100.6876 Z M -66.67101 -100.6876 " transform="matrix(0.993191, 0, 0, -0.993191, 107.396755, 19.974513)"/>
<path fill="none" stroke-width="0.3985" stroke-linecap="butt" stroke-linejoin="miter" stroke="rgb(0%, 0%, 0%)" stroke-opacity="1" stroke-miterlimit="10" d="M -49.664594 -100.6876 L -49.664594 -86.40284 L -35.3759 -86.40284 L -35.3759 -100.6876 Z M -49.664594 -100.6876 " transform="matrix(0.993191, 0, 0, -0.993191, 107.396755, 19.974513)"/>
<path fill="none" stroke-width="0.3985" stroke-linecap="butt" stroke-linejoin="miter" stroke="rgb(0%, 0%, 0%)" stroke-opacity="1" stroke-miterlimit="10" d="M -32.654244 -100.6876 L -32.654244 -86.40284 L -18.369484 -86.40284 L -18.369484 -100.6876 Z M -32.654244 -100.6876 " transform="matrix(0.993191, 0, 0, -0.993191, 107.396755, 19.974513)"/>
<path fill="none" stroke-width="0.3985" stroke-linecap="butt" stroke-linejoin="miter" stroke="rgb(0%, 0%, 0%)" stroke-opacity="1" stroke-miterlimit="10" d="M -15.647828 -100.6876 L -15.647828 -86.40284 L -1.359134 -86.40284 L -1.359134 -100.6876 Z M -15.647828 -100.6876 " transform="matrix(0.993191, 0, 0, -0.993191, 107.396755, 19.974513)"/>
<path fill="none" stroke-width="0.79701" stroke-linecap="butt" stroke-linejoin="miter" stroke="rgb(0%, 0%, 0%)" stroke-opacity="1" stroke-miterlimit="10" d="M -103.751606 -22.451791 L 1.700762 -22.451791 " transform="matrix(0.993191, 0, 0, -0.993191, 107.396755, 19.974513)"/>
<path fill="none" stroke-width="0.79701" stroke-linecap="butt" stroke-linejoin="miter" stroke="rgb(0%, 0%, 0%)" stroke-opacity="1" stroke-miterlimit="10" d="M -103.751606 -83.681184 L 1.700762 -83.681184 " transform="matrix(0.993191, 0, 0, -0.993191, 107.396755, 19.974513)"/>
<g fill="rgb(0%, 0%, 0%)" fill-opacity="1">
<use xlink:href="#glyph-0-0" x="9.871328" y="34.767105"/>
</g>
</svg>
